<?xml version="1.0" encoding="utf-8"?>
<!-- Generator: Adobe Illustrator 23.1.1, SVG Export Plug-In . SVG Version: 6.00 Build 0)  -->
<svg version="1.1" xmlns="http://www.w3.org/2000/svg" xmlns:xlink="http://www.w3.org/1999/xlink" x="0px" y="0px"
	 viewBox="0 0 2896.51 1080" style="enable-background:new 0 0 2896.51 1080;" xml:space="preserve">
<style type="text/css">
	.st0{fill:url(#SVGID_1_);}
	.st1{fill:#215A38;}
	.st2{fill:#21A038;}
	.st3{fill:url(#SVGID_2_);}
	.st4{fill:#FFFFFF;}
	.st5{fill:url(#SVGID_3_);}
	.st6{fill:url(#SVGID_4_);}
	.st7{fill:url(#XMLID_6_);}
	.st8{opacity:0.55;fill:url(#SVGID_5_);}
	.st9{fill:url(#XMLID_8_);}
	.st10{fill:url(#SVGID_6_);}
	.st11{fill:url(#XMLID_9_);}
	.st12{opacity:0.55;fill:url(#SVGID_7_);}
	.st13{fill:url(#XMLID_10_);}
	.st14{fill:url(#SVGID_8_);}
	.st15{fill:url(#XMLID_11_);}
	.st16{opacity:0.55;fill:url(#SVGID_9_);}
	.st17{fill:url(#XMLID_12_);}
	.st18{fill:url(#SVGID_10_);}
	.st19{opacity:0.55;fill:url(#SVGID_11_);}
	.st20{fill:url(#XMLID_13_);}
	.st21{fill:url(#XMLID_14_);}
	.st22{opacity:0.2;}
	.st23{fill:#FAED00;}
	.st24{fill:url(#SVGID_15_);}
	.st25{clip-path:url(#SVGID_17_);}
	.st26{clip-path:url(#SVGID_19_);}
	.st27{clip-path:url(#SVGID_21_);}
	.st28{fill:url(#SVGID_22_);}
	.st29{fill:url(#SVGID_23_);}
	.st30{opacity:0.55;fill:url(#SVGID_24_);}
	.st31{fill:url(#XMLID_16_);}
	.st32{fill:url(#XMLID_19_);}
	.st33{fill:#A0E720;}
	.st34{fill:url(#SVGID_25_);}
	.st35{fill:#A1E438;}
	.st36{fill:url(#SVGID_26_);}
	.st37{clip-path:url(#SVGID_27_);}
	.st38{fill:none;}
	.st39{fill:url(#SVGID_28_);}
	.st40{fill:url(#SVGID_30_);}
	.st41{fill:url(#SVGID_31_);}
	.st42{fill:url(#SVGID_32_);}
	.st43{fill:url(#SVGID_33_);}
	.st44{fill:url(#SVGID_34_);}
	.st45{fill:url(#SVGID_35_);}
	.st46{fill:url(#SVGID_36_);}
	.st47{fill:url(#SVGID_37_);}
	.st48{fill:url(#SVGID_38_);}
	.st49{fill:url(#SVGID_39_);}
	.st50{fill:url(#SVGID_40_);}
	.st51{clip-path:url(#SVGID_42_);fill:url(#SVGID_43_);}
	.st52{fill:none;stroke:#FFFFFF;}
	.st53{fill:#0087CD;}
	.st54{fill:#42E3B4;}
	.st55{fill:#00ADEE;}
</style>
<g id="Layer_2">
</g>
<g id="Layer_1">
	<g>
		<g>
			<path class="st1" d="M1334.21,490.89h-58.23l-0.44,7.23c-6.13,111.43-25.61,122.81-47.95,122.81c-4.82,0-8.97-0.65-12.26-2.19
				v-27.58c2.19,0.88,4.6,1.1,6.57,1.1c10.51,0,22.99-6.57,27.36-94.8l1.54-31.75h110.77v153.25h-27.36V490.89z"/>
			<path class="st1" d="M1472.58,463.3c49.26,0.22,82.1,29.77,82.1,79.25c0,46.2-32.18,78.81-82.1,78.81
				c-49.26,0-82.1-29.56-82.1-79.25C1390.48,495.92,1422.66,463.3,1472.58,463.3 M1472.79,596.19c32.62,0,52.98-21.67,52.98-53.86
				c0-29.99-18.39-53.63-53.42-53.85c-32.84,0.22-52.98,21.89-52.98,53.85C1419.37,572.32,1437.77,595.97,1472.79,596.19"/>
			<polygon class="st1" points="1687.34,490.89 1610.72,490.89 1610.72,618.95 1583.36,618.95 1583.36,465.7 1687.34,465.7 			"/>
			<polygon class="st1" points="1738.79,580.21 1822.42,465.7 1852.19,465.7 1852.19,618.95 1824.83,618.95 1824.83,502.71 
				1740.76,618.95 1711.43,618.95 1711.43,465.7 1738.79,465.7 			"/>
			<path class="st1" d="M2018.58,602.09c-7.66,9.2-27.8,19.27-54.29,19.27c-49.91-0.22-83.19-29.78-83.19-79.25
				c0-46.19,32.84-78.81,83.63-78.81c24.08,0,41.81,7.44,50.79,13.79v38.09c-9.19-13.57-27.8-26.7-50.79-26.7
				c-33.5,0-54.08,21.67-54.08,53.85c0,29.77,18.17,53.21,53.41,53.86c26.71,0,45.54-12.26,54.51-27.81V602.09z"/>
			<polygon class="st1" points="2160.45,490.89 2108.78,490.89 2108.78,618.95 2081.42,618.95 2081.42,490.89 2030.62,490.89 
				2030.62,465.7 2160.45,465.7 			"/>
			<polygon class="st1" points="2210.8,580.21 2294.43,465.7 2324.2,465.7 2324.2,618.95 2296.83,618.95 2296.83,502.71 
				2212.77,618.95 2183.44,618.95 2183.44,465.7 2210.8,465.7 			"/>
			<polygon class="st1" points="2391.42,618.95 2364.05,618.95 2364.05,465.7 2391.42,465.7 2391.42,530.07 2414.4,530.07 
				2463.66,465.7 2496.93,465.7 2438.49,538.61 2506.35,618.95 2471.32,618.95 2415.72,552.62 2391.42,552.62 			"/>
			<path class="st1" d="M2605.53,465.71l63.05,153.25h-29.11l-14.67-36.34h-70.28l-14.45,36.34h-27.8l62.18-153.25H2605.53z
				 M2564.37,557.44h50.35l-25.18-62.83L2564.37,557.44z"/>
		</g>
		<g>
			<g>
				<g>
					<polygon class="st2" points="966.37,491.22 1000.99,465.7 885.12,465.7 885.12,618.95 1000.99,618.95 1000.99,593.44 
						918.19,593.44 918.19,554.2 988.82,554.2 988.82,528.69 918.19,528.69 918.19,491.22 					"/>
					<g>
						<path class="st2" d="M797.66,525.44h-40.24v-34.22h64.24l34.62-25.52H724.35v153.25h69.04c38.73,0,60.94-17.55,60.94-48.14
							C854.34,541.56,834.21,525.44,797.66,525.44z M791.9,593.44h-34.48v-42.48h34.48c20.99,0,30.76,7.11,30.76,21.24
							C822.67,586.64,812.32,593.44,791.9,593.44z"/>
					</g>
					<path class="st2" d="M1094.87,465.71h-63.09v153.25h33.07v-43.41h30.02c40.26,0,65.27-21.17,65.27-55
						C1160.14,486.72,1135.13,465.71,1094.87,465.71z M1094.16,550.03h-29.31v-58.81h29.31c21.19,0,32.86,10.44,32.86,29.4
						C1127.02,539.59,1115.35,550.03,1094.16,550.03z"/>
					<g>
						<path class="st2" d="M667.59,585.77c-8.48,4.68-18.35,7.15-28.55,7.15c-29.81,0-51.45-21.28-51.45-50.6
							c0-29.32,21.64-50.6,51.45-50.6c11.28,0,21.39,3.17,30.08,9.41l23.72-17.48h0l-1.57-1.38c-13.85-12.17-32.35-18.6-53.51-18.6
							c-22.95,0-43.78,7.74-58.65,21.79c-14.96,14.14-23.19,34.02-23.19,56c0,22.08,8.21,42.26,23.11,56.83
							c14.95,14.61,35.73,22.66,58.52,22.66c23.84,0,44.65-8.31,58.76-23.43c-10.89-8.02-21.4-15.77-21.4-15.77L667.59,585.77z"/>
					</g>
				</g>
			</g>
			<g>
				<g>
					<g>
						<path class="st2" d="M452.73,464.47c6.01,7.77,11.15,16.26,15.26,25.31L351.96,575.3l-48.48-30.39v-36.56l48.48,30.39
							L452.73,464.47z"/>
					</g>
				</g>
				<g>
					<polygon class="st38" points="351.96,542.33 351.96,542.33 351.96,542.33 					"/>
					<linearGradient id="SVGID_1_" gradientUnits="userSpaceOnUse" x1="267.8689" y1="628.692" x2="235.7256" y2="535.7792">
						<stop  offset="0.1444" style="stop-color:#F2E913"/>
						<stop  offset="0.3037" style="stop-color:#E7E518"/>
						<stop  offset="0.5823" style="stop-color:#CADB26"/>
						<stop  offset="0.891" style="stop-color:#A3CD39"/>
					</linearGradient>
					<path class="st0" d="M254.04,542.33c0-1.64,0.04-3.27,0.12-4.89l-29.38-1.47c-0.1,2.11-0.16,4.23-0.16,6.36
						c0,35.16,14.25,67,37.3,90.04l20.83-20.83C265.02,593.81,254.04,569.33,254.04,542.33z"/>
					<linearGradient id="SVGID_2_" gradientUnits="userSpaceOnUse" x1="270.3183" y1="457.4911" x2="353.1057" y2="425.9425">
						<stop  offset="0.0592" style="stop-color:#0FA8E0"/>
						<stop  offset="0.5385" style="stop-color:#0099F9"/>
						<stop  offset="0.9234" style="stop-color:#0291EB"/>
					</linearGradient>
					<path class="st3" d="M351.96,444.4c1.64,0,3.27,0.06,4.89,0.14l1.47-29.39c-2.11-0.1-4.23-0.16-6.36-0.16
						c-35.16,0-67,14.25-90.04,37.3l20.83,20.83C300.48,455.38,324.96,444.4,351.96,444.4z"/>
					<linearGradient id="SVGID_3_" gradientUnits="userSpaceOnUse" x1="343.6587" y1="651.924" x2="437.277" y2="630.7651">
						<stop  offset="0.1226" style="stop-color:#A3CD39"/>
						<stop  offset="0.2846" style="stop-color:#86C339"/>
						<stop  offset="0.8693" style="stop-color:#21A038"/>
					</linearGradient>
					<path class="st5" d="M351.96,640.26c-1.64,0-3.27-0.04-4.89-0.12l-1.47,29.38c2.11,0.1,4.23,0.16,6.36,0.16
						c35.16,0,67-14.25,90.04-37.3l-20.83-20.83C403.44,629.27,378.96,640.26,351.96,640.26z"/>
				</g>
				<g>
					<polygon class="st38" points="351.96,542.33 351.96,542.33 351.96,542.33 351.96,542.33 					"/>
					<linearGradient id="SVGID_4_" gradientUnits="userSpaceOnUse" x1="345.8051" y1="424.8444" x2="425.847" y2="449.5409">
						<stop  offset="0.0566" style="stop-color:#0291EB"/>
						<stop  offset="0.79" style="stop-color:#0C8ACB"/>
					</linearGradient>
					<path class="st6" d="M407.17,461.49l24.77-18.25c-21.86-17.67-49.68-28.25-79.98-28.25l0,0v29.42
						C372.43,444.4,391.44,450.72,407.17,461.49z"/>
					<path class="st2" d="M479.3,542.33c0-7.79-0.7-15.41-2.04-22.82l-27.41,20.2c0.02,0.87,0.04,1.74,0.04,2.61
						c0,28.75-12.46,54.65-32.26,72.58l19.77,21.85C463.13,613.46,479.3,579.78,479.3,542.33z"/>
					<linearGradient id="SVGID_5_" gradientUnits="userSpaceOnUse" x1="264.9095" y1="624.1845" x2="352.0356" y2="656.7378">
						<stop  offset="0.1324" style="stop-color:#F2E913"/>
						<stop  offset="0.2977" style="stop-color:#EBE716"/>
						<stop  offset="0.5306" style="stop-color:#D9E01F"/>
						<stop  offset="0.8023" style="stop-color:#BBD62D"/>
						<stop  offset="0.9829" style="stop-color:#A3CD39"/>
					</linearGradient>
					<path style="fill:url(#SVGID_5_);" d="M351.96,640.26c-28.75,0-54.65-12.46-72.58-32.26l-21.85,19.77
						c23.3,25.74,56.98,41.91,94.43,41.91L351.96,640.26C351.96,640.26,351.96,640.26,351.96,640.26z"/>
					<linearGradient id="SVGID_6_" gradientUnits="userSpaceOnUse" x1="235.575" y1="545.8937" x2="270.5479" y2="454.9161">
						<stop  offset="0.0698" style="stop-color:#A3CD39"/>
						<stop  offset="0.2599" style="stop-color:#81C55F"/>
						<stop  offset="0.9216" style="stop-color:#0FA8E0"/>
					</linearGradient>
					<path class="st10" d="M286.29,469.75l-19.77-21.85c-25.74,23.3-41.91,56.98-41.91,94.43h29.42
						C254.04,513.57,266.49,487.68,286.29,469.75z"/>
				</g>
			</g>
		</g>
	</g>
</g>
</svg>
