<?xml version="1.0" encoding="utf-8"?>
<svg viewBox="1763.132 837.241 7121.469 1594.307" width="7121.469" height="1594.307" xmlns="http://www.w3.org/2000/svg">
  <defs>
    <style type="text/css">
   
    .fil1 {fill:#1A5EB8}
    .fil0 {fill:#1A5EB8;fill-rule:nonzero}
   
  </style>
  </defs>
  <g id="Слой_x0020_1" style="" transform="matrix(0.490963, 0, 0, 0.439741, 1928.93042, 880.664307)">
    <path class="fil0" d="M610.11 2175.17c92.91,178.46 229.33,325.99 392.66,431.79 83.63,54.18 174.21,97.48 269.53,128.45l0 252.43c-402.98,-114.85 -736.98,-408.71 -901.87,-794.73 15.05,-5.06 29.65,-9.55 43.62,-13.35 1.87,-0.51 3.73,-0.96 5.59,-1.39 31.89,-8.55 65.34,-13.98 101.64,-14 31.49,-0.01 60.81,4.1 88.83,10.8zm907.45 859.05l0 -436.31 -0.36 0 0 -43.31c-140.84,-16.58 -273.73,-65.31 -389.34,-140.21 -53.1,-34.4 -102.63,-74.29 -147.71,-119.08 54.26,5.8 103.81,2.36 151.43,-7.14 68.04,-13.56 127.58,-38.9 192.16,-66.39l-0.06 -0.16 26.87 -11.35c97.57,-41.05 170.31,-50.8 231.09,-44.64 60.25,6.13 118.06,30.32 177.11,55.03 45.77,19.16 92.24,38.59 146.78,53.18 57.65,15.41 121.11,24.46 195.31,20.44l18.35 -1.05 1.62 -0.11 0 -230.42c-6.84,0.28 -12.33,0.66 -17.81,1.05l-13.86 1.05c-46.66,2.53 -87.14,-3.3 -124.22,-13.22 -40.2,-10.75 -79.39,-27.15 -117.98,-43.3 -74.23,-31.06 -146.93,-61.49 -242.8,-71.22 -95.29,-9.65 -204.36,3.54 -342.67,61.73l-27.25 11.5 -0.46 0c-52.11,22.18 -100.13,42.63 -147.17,52 -41.14,8.2 -85.4,8.14 -139.02,-6.97 -30.39,-8.56 -61.06,-20.92 -91.63,-33.87l-0.29 -0.29 -20.47 -8.79c-90.79,-38.99 -180.56,-77.55 -313.9,-77.48 -89.13,0.05 -159.03,17.41 -223.01,40.64 -3.77,-15.63 -7.35,-31.34 -10.58,-47.17 -7.42,-36.22 -13.37,-72.7 -17.87,-109.33 10.07,-4.19 18.38,-7.74 26.64,-11.28l0.17 -0.07c70.34,-30.07 139.67,-59.73 224.65,-59.78 84.41,-0.03 153.33,29.56 223.01,59.49l0.08 -0.2 0.75 0.37c44.27,18.99 88.87,38.14 140.37,52.67 93.62,26.39 172.16,26.21 246.09,11.48 68.04,-13.56 127.58,-38.9 192.16,-66.39l-0.06 -0.16 26.87 -11.36c191.14,-80.44 297.32,-36.01 408.17,10.37 45.79,19.16 92.25,38.6 146.81,53.21 57.65,15.41 121.11,24.45 195.31,20.43l18.35 -1.05 1.62 -0.11 0 -230.42c-6.84,0.29 -12.33,0.67 -17.81,1.06l-13.86 1.04c-46.66,2.53 -87.14,-3.3 -124.22,-13.21 -40.19,-10.77 -79.38,-27.17 -117.98,-43.32 -155.74,-65.16 -304.88,-127.56 -585.47,-9.48l-27.25 11.51 -0.46 0c-52.11,22.18 -100.13,42.62 -147.17,52 -41.14,8.19 -85.4,8.14 -139.02,-6.98 -30.39,-8.56 -61.06,-20.9 -91.63,-33.87l-0.29 -0.28 -20.47 -8.79c-90.79,-39 -180.56,-77.55 -313.9,-77.48 -106.61,0.06 -185.72,24.87 -260.07,54.87 3.35,-63.99 11.06,-127.74 23.09,-190.71 5.62,-2.34 9.06,-3.82 12.16,-5.15l0.17 -0.07c70.34,-30.07 139.67,-59.74 224.65,-59.78 84.41,-0.04 153.33,29.56 223.01,59.48l0.08 -0.19 0.75 0.36c44.27,19 88.87,38.15 140.37,52.67 93.62,26.4 172.16,26.22 246.09,11.48 68.04,-13.56 127.58,-38.9 192.16,-66.39l-0.06 -0.16 26.87 -11.35c97.57,-41.05 170.31,-50.8 231.09,-44.63 60.25,6.12 118.06,30.32 177.11,55.03 45.77,19.14 92.24,38.58 146.78,53.17 57.65,15.41 121.11,24.46 195.31,20.44l18.35 -1.05 1.62 -0.12 0 -230.41c-6.84,0.28 -12.33,0.66 -17.81,1.05l-13.86 1.05c-46.66,2.53 -87.14,-3.3 -124.22,-13.22 -40.2,-10.75 -79.39,-27.15 -117.98,-43.3 -74.23,-31.06 -146.93,-61.5 -242.8,-71.22 -95.29,-9.67 -204.36,3.54 -342.67,61.73l-27.25 11.51 -0.46 0c-52.11,22.17 -100.13,42.62 -147.17,51.99 -41.14,8.21 -85.4,8.15 -139.02,-6.96 -30.39,-8.57 -61.06,-20.92 -91.63,-33.88l-0.29 -0.29 -20.47 -8.79c-90.79,-38.99 -180.56,-77.55 -313.9,-77.48 -58.33,0.05 -108.43,7.48 -154.02,19.13 198.05,-472.36 641.73,-799.23 1150.6,-848.06l0 -259.18c-621.1,50.11 -1162.9,447.84 -1397.78,1027.62 -121.32,299.49 -151.53,634.12 -86.89,950.64 147.02,720.62 756.5,1256.42 1484.67,1315.15l0 -259.16 -0.3 -0.03zm203.5 -246.95c277.7,-23.1 527.29,-145.34 713.19,-331.24 207.11,-207.11 335.25,-493.28 335.25,-809.32 0,-316.02 -128.14,-602.19 -335.25,-809.31 -207.11,-207.12 -493.27,-335.24 -809.32,-335.24 -219.7,0 -430.04,63.24 -609.48,176.15 -93.4,58.78 -193.59,146.39 -267.01,230.4 80.24,23.84 153.19,63.84 232.26,89.29 43.66,-41.31 106.45,-93.4 157.15,-125.3 142.79,-89.85 310.85,-140.17 487.08,-140.17 252.46,0 481.02,102.33 646.44,267.75 165.42,165.41 267.76,393.98 267.76,646.43 0,252.46 -102.34,481.03 -267.76,646.45 -144.14,144.15 -336.25,240.37 -550.31,262.74l0 231.37z"/>
  </g>
  <g id="Слой_x0020_2">
    <path class="fil0" d="M3664.59 1182.37c262.19,0 524.38,0 786.57,0l0 928.66 -257.38 0 0 -703.14 -271.81 0 0 703.14 -257.38 0 0 -928.66z"/>
    <path class="fil0" d="M5105.4 2129.61c286.55,0 501.47,-216.23 501.47,-482.89 0,-269.32 -212.25,-482.9 -498.82,-482.9 -286.56,0 -501.48,216.23 -501.48,482.9 0,269.31 212.27,482.89 498.83,482.89zm2.65 -232.15c-140.62,0 -237.47,-116.75 -237.47,-250.74 0,-136.65 94.19,-250.75 234.82,-250.75 141.96,0 238.79,116.75 238.79,250.75 0,136.64 -94.18,250.74 -236.14,250.74z"/>
    <path class="fil0" d="M6187.94 2129.61c205.64,0 323.71,-88.87 411.27,-209.6l-193.69 -137.97c-55.72,67.66 -112.77,112.75 -209.62,112.75 -130.01,0 -221.54,-108.77 -221.54,-248.07 0,-137.98 91.53,-248.09 221.54,-248.09 88.89,0 151.24,41.12 204.31,107.46l188.39 -145.94c-82.26,-114.09 -200.33,-196.33 -390.05,-196.33 -281.25,0 -489.53,212.25 -489.53,482.9 0,279.91 213.6,482.89 478.92,482.89z"/>
    <polygon class="fil0" points="6936.17,2111.04 7193.55,2111.04 7193.55,1407.91 7472.14,1407.91 7472.14,1182.38 6657.57,1182.38 6657.57,1407.91 6936.17,1407.91 "/>
    <path class="fil1" d="M8310.61 1074.48c317,0 573.99,256.98 573.99,573.98 0,317.01 -256.99,573.99 -573.99,573.99 -317,0 -573.98,-256.98 -573.98,-573.99 0,-317 256.98,-573.98 573.98,-573.98zm-259.82 838.88c152.84,0 235.79,-113.54 235.79,-280.17 0,-95.35 -24.01,-153.55 -61.13,-189.96 -38.55,-38.56 -82.22,-59.67 -156.46,-59.67 -116.43,0 -203.04,72.77 -203.04,185.58 0,101.17 72.05,162.29 171.02,162.29 45.14,0 81.51,-16.74 107.7,-41.47 -6.54,65.49 -37.83,106.24 -96.06,106.24 -40.74,0 -74.23,-13.1 -109.15,-40.75l-66.23 97.5c46.58,36.39 101.89,60.41 177.56,60.41zm24.75 -283.08c-44.4,0 -72.76,-28.39 -72.76,-66.97 0,-40.75 26.91,-69.87 71.31,-69.87 44.39,0 72.77,29.85 72.77,69.15 0,38.58 -26.93,67.69 -71.32,67.69zm470.13 281.63c122.26,0 209.6,-58.96 209.6,-149.91 0,-64.78 -35.66,-98.98 -87.34,-123 39.3,-21.83 69.86,-55.31 69.86,-110.62 0,-82.97 -77.85,-143.36 -192.12,-143.36 -114.25,0 -192.11,60.39 -192.11,141.91 0,56.76 30.55,90.24 69.86,112.07 -54.59,23.28 -87.34,60.41 -87.34,122.27 0,90.25 87.34,150.64 209.59,150.64zm0 -105.52c-47.29,0 -73.5,-26.93 -73.5,-57.5 0,-34.2 30.56,-56.76 73.5,-56.76 42.95,0 73.51,22.56 73.51,55.31 0,32.02 -26.22,58.95 -73.51,58.95zm0 -205.96c-37.85,0 -62.59,-24 -62.59,-56.03 0,-29.84 24.02,-54.59 62.59,-54.59 38.57,0 62.59,25.48 62.59,53.86 0,33.47 -24.75,56.76 -62.59,56.76l0 0z"/>
  </g>
</svg>