<svg width="10" height="12" viewBox="0 0 10 12" fill="none" xmlns="http://www.w3.org/2000/svg">
    <path d="M8.375 4.03125C8.99632 4.03125 9.5 4.53493 9.5 5.15625V10.7812C9.5 11.4026 8.99632 11.9062 8.375 11.9062H1.625C1.00368 11.9062 0.5 11.4026 0.5 10.7812V5.15625C0.5 4.53188 1.00625 4.03125 1.625 4.03125H2.1875V2.90625C2.1875 1.35295 3.4467 0.09375 5 0.09375C5.74592 0.09375 6.46129 0.390066 6.98874 0.917512C7.51618 1.44496 7.8125 2.16033 7.8125 2.90625V4.03125H8.375ZM5 1.21875C4.06802 1.21875 3.3125 1.97427 3.3125 2.90625V4.03125H6.6875V2.90625C6.6875 1.97427 5.93198 1.21875 5 1.21875Z" fill="#999999"/>
</svg>
